<svg width="720" height="400" viewBox="0 0 720 400" fill="none" xmlns="http://www.w3.org/2000/svg">
<g clip-path="url(#clip0_1837_28)">
<path d="M42.9065 333.443V330.449C42.9065 329.452 43.4048 328.953 44.4015 328.953H44.4727C49.3139 328.953 51.7344 325.793 51.7344 319.474V275.644C51.7344 269.277 49.3139 266.094 44.4727 266.094H44.4015C43.4048 266.094 42.9065 265.619 42.9065 264.669V261.604C42.9065 260.606 43.4048 260.107 44.4015 260.107H76.4383C80.8523 260.107 84.9103 260.844 88.6123 262.317C92.3144 263.742 95.3282 265.856 97.6538 268.66C99.932 271.463 101.071 274.646 101.071 278.21C101.071 280.918 100.24 283.483 98.5793 285.907C96.9656 288.377 94.4501 290.444 91.0329 292.107C102.092 295.29 107.621 302.227 107.621 312.917C107.621 315.768 106.98 318.5 105.699 321.113C104.465 323.774 102.709 326.126 100.43 328.169C98.1996 330.212 95.3756 331.851 91.9584 333.086C88.5886 334.322 84.9578 334.939 81.0659 334.939H44.4015C43.4048 334.939 42.9065 334.44 42.9065 333.443ZM67.0409 266.094V290.254H73.3059C77.7673 290.254 81.0184 289.137 83.0593 286.904C85.1001 284.719 86.1206 281.821 86.1206 278.21C86.1206 274.551 85.029 271.605 82.8457 269.372C80.615 267.187 77.5537 266.094 73.6618 266.094H67.0409ZM67.6816 297.31V319.474C67.6816 325.508 69.8411 328.668 74.1602 328.953H76.6519C81.5405 328.953 85.4324 327.456 88.3276 324.463C91.2227 321.47 92.6703 317.621 92.6703 312.917C92.6703 307.406 91.1278 303.415 88.0428 300.944C85.0052 298.521 80.1404 297.31 73.4482 297.31H67.6816ZM110.753 289.613V286.548C110.753 285.598 111.252 285.123 112.248 285.123L112.462 285.051H132.538C133.488 285.051 133.962 285.55 133.962 286.548V315.626C133.962 315.816 133.962 316.077 133.962 316.41C133.962 317.455 133.962 318.239 133.962 318.761C133.962 319.284 134.01 319.997 134.105 320.899C134.2 321.85 134.342 322.562 134.532 323.038C134.674 323.513 134.935 324.083 135.315 324.748C135.647 325.366 136.074 325.864 136.596 326.245C137.118 326.577 137.759 326.862 138.519 327.1C139.278 327.337 140.18 327.456 141.224 327.456C143.597 327.456 145.994 326.577 148.414 324.819C150.787 323.109 152.425 321.161 153.327 318.975V300.588C153.327 297.737 152.686 295.433 151.404 293.675C150.123 291.917 148.319 291.038 145.994 291.038H145.78C144.784 291.038 144.285 290.563 144.285 289.613V286.548C144.285 285.645 144.807 285.146 145.851 285.051H165.785C166.83 285.051 167.352 285.55 167.352 286.548V314.77C167.352 316.386 167.399 317.716 167.494 318.761C167.589 319.854 167.826 320.994 168.206 322.182C168.538 323.37 169.131 324.32 169.986 325.033C170.84 325.698 171.908 326.102 173.189 326.245C174.044 326.34 174.447 326.767 174.4 327.527V330.948C174.4 331.804 173.901 332.231 172.905 332.231C169.867 332.231 167.114 332.445 164.646 332.873C162.178 333.3 160.422 333.728 159.378 334.155C158.286 334.535 156.696 335.177 154.608 336.08C154.371 336.222 154.11 336.293 153.825 336.293H153.54C153.445 336.293 153.398 336.175 153.398 335.937L154.964 323.394C154.205 324.914 153.303 326.363 152.259 327.741C151.167 329.167 149.886 330.544 148.414 331.875C146.896 333.205 145.163 334.274 143.217 335.082C141.224 335.89 139.136 336.293 136.952 336.293C134.2 336.293 131.803 335.913 129.762 335.153C127.673 334.393 126.036 333.443 124.85 332.302C123.615 331.115 122.643 329.642 121.931 327.884C121.171 326.173 120.673 324.463 120.436 322.752C120.151 320.994 120.008 319.094 120.008 317.051V300.588C120.008 297.737 119.391 295.433 118.157 293.675C116.876 291.917 115.049 291.038 112.676 291.038H112.248C111.252 291.038 110.753 290.563 110.753 289.613ZM176.18 318.476C176.18 317.954 176.464 317.526 177.034 317.193L180.095 315.412C180.332 315.269 180.617 315.198 180.949 315.198C181.424 315.198 181.804 315.459 182.089 315.982C187.974 324.962 195.52 329.452 204.728 329.452C211.088 329.452 214.268 327.551 214.268 323.75C214.268 323.18 214.197 322.657 214.054 322.182C213.864 321.66 213.556 321.185 213.129 320.757C212.702 320.329 212.298 319.949 211.918 319.617C211.539 319.237 210.969 318.88 210.21 318.548C209.403 318.167 208.762 317.882 208.288 317.692C207.765 317.455 207.006 317.17 206.009 316.837C205.06 316.552 204.324 316.315 203.802 316.124C203.28 315.982 202.497 315.744 201.453 315.412C200.361 315.127 199.602 314.913 199.175 314.77C195.995 313.82 193.242 312.822 190.916 311.777C188.638 310.684 186.811 309.592 185.435 308.499C184.058 307.453 182.967 306.289 182.16 305.007C181.353 303.724 180.807 302.512 180.522 301.372C180.238 300.232 180.095 298.949 180.095 297.523C180.095 293.485 181.661 290.183 184.794 287.617C187.926 285.099 192.079 283.84 197.253 283.84C199.958 283.84 202.521 284.196 204.941 284.909C207.362 285.622 209.189 286.358 210.423 287.118C210.613 287.213 210.756 287.261 210.851 287.261C211.373 287.261 211.444 286.572 211.064 285.194C210.969 284.861 210.922 284.624 210.922 284.481C210.922 283.816 211.349 283.483 212.203 283.483H214.766C215.62 283.483 216.19 283.864 216.475 284.624L221.458 297.31C221.648 297.737 221.743 298.07 221.743 298.307C221.743 298.735 221.482 299.091 220.96 299.376L218.539 300.659C218.207 300.802 217.946 300.873 217.756 300.873C217.329 300.873 216.902 300.612 216.475 300.089C213.674 296.621 210.684 294.055 207.504 292.392C204.277 290.729 201.311 289.898 198.605 289.898C196.612 289.898 194.951 290.302 193.622 291.109C192.293 291.917 191.628 293.2 191.628 294.958C191.628 296.003 191.937 296.929 192.554 297.737C193.171 298.592 194.073 299.305 195.259 299.875C196.446 300.445 197.585 300.921 198.677 301.301C199.721 301.681 201.073 302.085 202.735 302.512C208.335 303.938 212.227 305.125 214.41 306.076C220.912 308.784 224.496 312.751 225.16 317.977C225.255 318.595 225.303 319.237 225.303 319.902C225.303 324.653 223.38 328.549 219.536 331.59C215.739 334.631 210.637 336.151 204.23 336.151C200.053 336.151 196.208 335.272 192.696 333.514C192.317 333.371 192.032 333.3 191.842 333.3C191.225 333.3 191.059 333.799 191.344 334.797C191.439 335.082 191.486 335.343 191.486 335.581C191.486 336.151 191.106 336.412 190.347 336.365H186.787C186.028 336.365 185.435 336.032 185.007 335.367L176.393 319.26C176.251 318.928 176.18 318.666 176.18 318.476ZM229.361 307.644C229.693 303.652 230.666 300.089 232.28 296.953C233.893 293.817 235.887 291.323 238.26 289.47C240.633 287.665 243.22 286.287 246.02 285.336C248.773 284.386 251.62 283.911 254.563 283.911L256.414 283.982C261.967 284.362 266.167 285.835 269.015 288.401C271.91 290.919 273.738 294.007 274.497 297.666L274.568 298.094C274.568 298.759 274.165 299.186 273.358 299.376L261.967 302.441C261.635 302.536 261.326 302.583 261.041 302.583C260.757 302.583 260.543 302.536 260.401 302.441C260.306 302.346 260.258 302.18 260.258 301.942L260.401 300.873C260.401 300.54 260.401 300.184 260.401 299.804C260.401 297.428 259.807 295.575 258.621 294.245C257.245 292.677 255.132 291.869 252.285 291.822C249.295 291.822 246.969 293.01 245.308 295.385C243.647 297.713 242.65 300.73 242.318 304.436C242.175 306.147 242.104 307.406 242.104 308.214C242.104 310.827 242.365 313.226 242.887 315.412C243.362 317.645 244.098 319.664 245.094 321.47C246.138 323.275 247.562 324.7 249.366 325.746C251.169 326.839 253.281 327.385 255.702 327.385C256.129 327.385 256.77 327.337 257.624 327.242C259.665 327.052 261.658 326.363 263.604 325.176C265.55 323.94 267.259 322.254 268.73 320.116C269.015 319.64 269.395 319.403 269.869 319.403C270.202 319.403 270.486 319.498 270.724 319.688L273.358 321.541C274.165 322.064 274.355 322.729 273.927 323.536C270.558 330.758 264.506 334.821 255.773 335.723C254.871 335.818 253.97 335.866 253.068 335.866C249.461 335.866 246.091 335.058 242.958 333.443C239.826 331.875 237.239 329.76 235.198 327.1C233.11 324.487 231.544 321.47 230.5 318.049C229.693 315.388 229.289 312.68 229.289 309.924C229.289 309.164 229.313 308.404 229.361 307.644ZM278.769 309.924C278.769 305.458 279.409 301.514 280.691 298.094C281.972 294.673 283.728 291.941 285.959 289.898C288.142 287.902 290.587 286.382 293.292 285.336C296.045 284.291 298.987 283.769 302.12 283.769C308.622 283.769 313.985 285.717 318.209 289.613C319.016 289.28 319.752 288.971 320.416 288.686C321.081 288.354 321.722 288.021 322.339 287.688C322.908 287.356 323.383 287.094 323.762 286.904C324.19 286.667 324.664 286.382 325.186 286.049C325.661 285.717 325.993 285.503 326.183 285.408C326.373 285.265 326.729 285.004 327.251 284.624C327.773 284.244 328.058 284.03 328.105 283.982C328.295 283.84 328.437 283.769 328.532 283.769H328.817C328.865 283.769 328.888 283.84 328.888 283.982V316.481C328.936 317.859 329.031 319.023 329.173 319.973C329.363 320.971 329.648 321.945 330.027 322.895C330.455 323.845 331.072 324.605 331.878 325.176C332.638 325.746 333.611 326.102 334.797 326.245C335.652 326.34 336.031 326.767 335.936 327.527V330.948C335.936 331.804 335.462 332.231 334.513 332.231C331.475 332.231 328.722 332.445 326.254 332.873C323.786 333.3 321.983 333.728 320.844 334.155C319.704 334.583 318.138 335.224 316.145 336.08C315.907 336.222 315.623 336.293 315.29 336.293H315.077C314.982 336.293 314.935 336.175 314.935 335.937L316.074 327.1C315.741 327.955 315.267 328.81 314.65 329.665C314.033 330.568 313.155 331.542 312.016 332.587C310.829 333.68 309.287 334.559 307.388 335.224C305.442 335.937 303.259 336.293 300.838 336.293C298.987 336.293 297.065 336.008 295.072 335.438C293.126 334.868 291.156 333.894 289.163 332.516C287.217 331.138 285.484 329.475 283.966 327.527C282.399 325.579 281.142 323.085 280.192 320.044C279.243 317.003 278.769 313.63 278.769 309.924ZM291.654 306.717C291.654 313.036 292.912 318.072 295.428 321.826C297.943 325.579 301.266 327.456 305.395 327.456C306.771 327.456 308.053 327.219 309.239 326.743C310.378 326.316 311.28 325.793 311.944 325.176C312.656 324.51 313.25 323.869 313.724 323.251C314.199 322.586 314.531 322.016 314.721 321.541L315.006 320.899V300.873C314.768 299.685 314.436 298.569 314.009 297.523C313.534 296.431 312.894 295.314 312.087 294.174C311.28 293.033 310.188 292.131 308.812 291.466C307.388 290.753 305.751 290.397 303.9 290.397C302.049 290.397 300.387 290.705 298.916 291.323C297.445 291.941 296.282 292.772 295.428 293.817C294.526 294.815 293.766 296.027 293.149 297.452C292.58 298.877 292.177 300.327 291.939 301.799C291.749 303.32 291.654 304.959 291.654 306.717ZM365.339 333.443V330.449C365.339 329.452 365.837 328.953 366.834 328.953H367.546C372.007 328.715 374.238 325.556 374.238 319.474V275.644C374.238 269.277 371.818 266.094 366.977 266.094H366.834C365.837 266.094 365.339 265.619 365.339 264.669V261.604C365.339 260.606 365.837 260.107 366.834 260.107H397.518C405.207 260.107 412.065 261.557 418.093 264.455C424.121 267.353 428.891 271.653 432.403 277.354C435.915 283.056 437.671 289.731 437.671 297.381C437.671 302.75 436.935 307.667 435.464 312.133C433.993 316.6 431.786 320.543 428.843 323.964C425.853 327.432 421.937 330.141 417.096 332.089C412.255 333.989 406.655 334.939 400.295 334.939H366.834C365.837 334.939 365.339 334.44 365.339 333.443ZM390.114 266.094V318.975C390.114 320.306 390.138 321.327 390.185 322.04C390.233 322.8 390.399 323.655 390.684 324.605C390.921 325.508 391.301 326.197 391.823 326.672C392.297 327.147 393.009 327.551 393.959 327.884C394.955 328.264 396.142 328.454 397.518 328.454C401.363 328.454 404.709 328.003 407.556 327.1C410.452 326.15 412.825 324.843 414.676 323.18C416.574 321.517 418.117 319.379 419.303 316.766C420.442 314.2 421.249 311.349 421.724 308.214C422.246 305.078 422.507 301.467 422.507 297.381C422.507 287.498 420.086 279.825 415.245 274.361C410.452 268.85 403.617 266.094 394.742 266.094H390.114ZM443.865 333.443V330.449C443.865 329.452 444.363 328.953 445.36 328.953H445.502C447.875 328.905 449.703 328.026 450.984 326.316C452.171 324.605 452.764 322.444 452.764 319.83C452.764 319.735 452.764 319.617 452.764 319.474V308.926C452.764 307.548 452.716 306.361 452.622 305.363C452.479 304.413 452.242 303.367 451.91 302.227C451.53 301.087 450.913 300.184 450.059 299.519C449.252 298.854 448.184 298.45 446.855 298.307C446.001 298.212 445.621 297.785 445.716 297.025V293.675C445.716 293.247 445.811 292.962 446.001 292.82C446.238 292.677 446.618 292.511 447.14 292.321C455.635 289.47 461.734 286.097 465.436 282.201C465.626 282.058 465.769 281.987 465.863 281.987H466.148C466.196 281.987 466.267 282.034 466.362 282.129V319.474C466.362 322.277 466.979 324.558 468.213 326.316C469.494 328.074 471.322 328.953 473.695 328.953H473.908C474.905 328.953 475.403 329.452 475.403 330.449V333.443C475.403 333.918 475.261 334.298 474.976 334.583C474.644 334.821 474.24 334.939 473.766 334.939H445.573C445.099 334.939 444.695 334.821 444.363 334.583C444.031 334.298 443.865 333.918 443.865 333.443ZM451.91 268.588C451.91 266.925 452.716 265.263 454.33 263.6C455.991 261.984 457.676 261.176 459.385 261.176C461.046 261.176 462.707 261.984 464.368 263.6C466.03 265.31 466.86 266.973 466.86 268.588C466.86 270.251 466.03 271.938 464.368 273.648C462.707 275.264 461.046 276.072 459.385 276.072C457.676 276.072 455.991 275.264 454.33 273.648C452.716 271.986 451.91 270.299 451.91 268.588ZM477.61 309.924C477.61 305.458 478.251 301.514 479.532 298.094C480.814 294.673 482.546 291.941 484.73 289.898C486.96 287.902 489.428 286.382 492.134 285.336C494.839 284.291 497.758 283.769 500.89 283.769C507.393 283.769 512.78 285.717 517.051 289.613C517.81 289.28 518.522 288.971 519.187 288.686C519.851 288.354 520.492 288.021 521.109 287.688C521.726 287.356 522.224 287.094 522.604 286.904C522.984 286.667 523.435 286.382 523.957 286.049C524.479 285.717 524.835 285.503 525.025 285.408C525.167 285.265 525.499 285.004 526.021 284.624C526.543 284.244 526.852 284.03 526.947 283.982C527.137 283.84 527.279 283.769 527.374 283.769H527.588C527.683 283.769 527.73 283.84 527.73 283.982V316.481C527.73 317.859 527.825 319.023 528.015 319.973C528.157 320.971 528.442 321.945 528.869 322.895C529.249 323.845 529.842 324.605 530.649 325.176C531.456 325.746 532.429 326.102 533.568 326.245C534.422 326.34 534.826 326.767 534.778 327.527V330.948C534.778 331.804 534.28 332.231 533.283 332.231C530.246 332.231 527.493 332.445 525.025 332.873C522.604 333.3 520.824 333.728 519.685 334.155C518.499 334.583 516.932 335.224 514.987 336.08C514.702 336.222 514.417 336.293 514.132 336.293H513.919C513.776 336.293 513.705 336.175 513.705 335.937L514.915 327.1C514.536 327.955 514.037 328.81 513.42 329.665C512.803 330.568 511.925 331.542 510.786 332.587C509.647 333.68 508.105 334.559 506.159 335.224C504.213 335.937 502.053 336.293 499.68 336.293C497.782 336.293 495.859 336.008 493.913 335.438C491.967 334.868 489.998 333.894 488.004 332.516C486.011 331.138 484.255 329.475 482.736 327.527C481.217 325.579 479.983 323.085 479.034 320.044C478.085 317.003 477.61 313.63 477.61 309.924ZM490.425 306.717C490.425 313.036 491.683 318.072 494.198 321.826C496.761 325.579 500.083 327.456 504.165 327.456C505.589 327.456 506.871 327.219 508.01 326.743C509.149 326.316 510.074 325.793 510.786 325.176C511.451 324.51 512.02 323.869 512.495 323.251C513.017 322.586 513.373 322.016 513.563 321.541L513.776 320.899V300.873C513.539 299.685 513.207 298.569 512.78 297.523C512.352 296.431 511.735 295.314 510.929 294.174C510.122 293.033 509.006 292.131 507.582 291.466C506.159 290.753 504.521 290.397 502.67 290.397C500.819 290.397 499.182 290.705 497.758 291.323C496.286 291.941 495.1 292.772 494.198 293.817C493.296 294.815 492.561 296.027 491.991 297.452C491.422 298.877 491.018 300.327 490.781 301.799C490.544 303.32 490.425 304.959 490.425 306.717ZM538.979 333.443V330.449C538.979 329.452 539.477 328.953 540.474 328.953H540.687C543.013 328.953 544.816 328.074 546.098 326.316C547.332 324.558 547.949 322.277 547.949 319.474V306.931C547.949 305.315 547.901 303.961 547.806 302.869C547.664 301.823 547.427 300.707 547.095 299.519C546.715 298.284 546.098 297.333 545.244 296.668C544.437 296.003 543.369 295.599 542.04 295.457C541.233 295.362 540.853 294.934 540.901 294.174V290.753C540.901 290.04 541.375 289.613 542.325 289.47C546.549 288.757 550.464 287.688 554.071 286.263C557.679 284.79 560.336 283.436 562.045 282.201C562.282 282.058 562.425 281.987 562.472 281.987H562.757C562.804 281.987 562.828 282.034 562.828 282.129L560.479 295.528C562.282 291.774 564.75 288.876 567.883 286.833C571.015 284.79 574.385 283.769 577.992 283.769C581.315 283.769 584.02 284.671 586.108 286.477C588.244 288.282 589.312 290.824 589.312 294.102C589.312 295.86 589.146 297.238 588.814 298.236C588.481 299.234 587.769 299.97 586.678 300.445L577.352 304.294C577.067 304.389 576.782 304.436 576.497 304.436C575.88 304.436 575.572 304.128 575.572 303.51C575.572 303.177 575.619 302.869 575.714 302.583C576.331 301.111 576.64 299.471 576.64 297.666C576.64 295.908 576.212 294.601 575.358 293.746C574.504 292.891 573.365 292.463 571.941 292.463C569.853 292.463 567.883 293.366 566.032 295.172C564.181 296.977 562.828 298.949 561.974 301.087V319.474C561.974 322.277 562.615 324.558 563.896 326.316C565.13 328.074 566.91 328.953 569.235 328.953H569.449C570.446 328.953 570.944 329.452 570.944 330.449V333.443C570.944 334.44 570.446 334.939 569.449 334.939H540.474C539.477 334.939 538.979 334.44 538.979 333.443ZM592.088 333.443V330.449C592.088 329.452 592.587 328.953 593.583 328.953H593.726C596.099 328.905 597.926 328.026 599.208 326.316C600.394 324.605 600.987 322.444 600.987 319.83C600.987 319.735 600.987 319.617 600.987 319.474V308.926C600.987 307.548 600.94 306.361 600.845 305.363C600.703 304.413 600.465 303.367 600.133 302.227C599.754 301.087 599.16 300.184 598.353 299.519C597.499 298.854 596.407 298.45 595.079 298.307C594.272 298.212 593.892 297.785 593.939 297.025V293.675C593.939 293.247 594.034 292.962 594.224 292.82C594.462 292.677 594.841 292.511 595.363 292.321C603.906 289.47 610.029 286.097 613.731 282.201C613.873 282.058 614.016 281.987 614.158 281.987H614.372C614.467 281.987 614.538 282.034 614.585 282.129V319.474C614.585 322.277 615.226 324.558 616.508 326.316C617.742 328.074 619.545 328.953 621.918 328.953H622.203C623.2 328.953 623.698 329.452 623.698 330.449V333.443C623.698 333.918 623.532 334.298 623.2 334.583C622.867 334.821 622.464 334.939 621.989 334.939H593.797C593.322 334.939 592.919 334.821 592.587 334.583C592.255 334.298 592.088 333.918 592.088 333.443ZM600.133 268.588C600.133 266.925 600.964 265.263 602.625 263.6C604.286 261.984 605.947 261.176 607.608 261.176C609.27 261.176 610.931 261.984 612.592 263.6C614.253 265.31 615.084 266.973 615.084 268.588C615.084 270.251 614.253 271.938 612.592 273.648C610.931 275.264 609.27 276.072 607.608 276.072C605.947 276.072 604.286 275.264 602.625 273.648C600.964 271.986 600.133 270.299 600.133 268.588ZM625.834 309.496C625.834 304.46 627.187 299.804 629.892 295.528C632.55 291.204 636.181 288.021 640.784 285.978C643.964 284.553 647.31 283.84 650.823 283.84C655.854 283.84 660.552 285.265 664.919 288.116C669.285 290.919 672.56 294.768 674.743 299.661C676.31 303.082 677.093 306.717 677.093 310.566C677.093 315.602 675.764 320.234 673.106 324.463C670.448 328.739 666.794 331.922 662.142 334.013C658.867 335.438 655.498 336.151 652.033 336.151C647.002 336.151 642.303 334.749 637.937 331.946C633.57 329.095 630.319 325.247 628.183 320.401C626.617 316.932 625.834 313.297 625.834 309.496ZM637.723 303.225C637.723 306.883 638.649 310.779 640.5 314.913C642.208 318.714 644.344 321.873 646.907 324.392C649.47 326.91 652.199 328.169 655.094 328.169C656.423 328.169 657.752 327.884 659.081 327.314C663.115 325.556 665.132 322.04 665.132 316.766C665.132 313.155 664.207 309.283 662.356 305.149C660.647 301.301 658.511 298.117 655.948 295.599C653.338 293.081 650.585 291.822 647.69 291.822C646.409 291.822 645.08 292.131 643.703 292.748C639.716 294.459 637.723 297.951 637.723 303.225Z" fill="url(#paint0_linear_1837_28)"/>
<path d="M444.712 138.196C444.705 137.868 444.64 137.543 444.52 137.238C444.489 137.16 444.447 137.097 444.409 137.021C444.348 136.899 444.301 136.769 444.221 136.654L419.521 100.959V77.7529C419.521 77.3819 419.448 77.0146 419.306 76.672C419.164 76.3293 418.956 76.0179 418.694 75.7556C418.432 75.4933 418.121 75.2853 417.779 75.1433C417.436 75.0014 417.07 74.9283 416.699 74.9283H374.127C373.472 71.7404 371.739 68.8759 369.221 66.8178C366.702 64.7597 363.552 63.6339 360.301 63.6301C357.051 63.635 353.901 64.7613 351.384 66.8193C348.866 68.8773 347.134 71.7412 346.48 74.9283H303.303C302.555 74.9283 301.837 75.2259 301.308 75.7556C300.779 76.2853 300.482 77.0037 300.482 77.7529V100.959L275.777 136.654C275.699 136.769 275.652 136.899 275.591 137.021C275.553 137.097 275.511 137.163 275.48 137.238C275.363 137.546 275.297 137.869 275.288 138.196C275.288 138.219 275.276 138.238 275.276 138.262C275.276 153.733 287.848 166.319 303.303 166.319C318.758 166.319 331.331 153.733 331.331 138.262C331.331 138.238 331.319 138.219 331.319 138.196C331.311 137.867 331.245 137.543 331.124 137.238C331.096 137.16 331.053 137.097 331.016 137.021C330.954 136.899 330.907 136.769 330.827 136.654L306.125 100.959V80.5774H346.48C347.038 83.2886 348.377 85.7766 350.333 87.734C352.288 89.6913 354.773 91.0322 357.482 91.5908V191.081H323.919C323.549 191.081 323.182 191.154 322.84 191.296C322.497 191.438 322.186 191.646 321.924 191.908C321.662 192.17 321.454 192.482 321.313 192.824C321.171 193.167 321.098 193.534 321.098 193.905V213.331C321.098 213.702 321.171 214.069 321.313 214.412C321.454 214.755 321.662 215.066 321.924 215.328C322.186 215.591 322.497 215.799 322.84 215.941C323.182 216.083 323.549 216.156 323.919 216.156H396.685C397.433 216.156 398.151 215.858 398.68 215.328C399.209 214.799 399.506 214.08 399.506 213.331V193.905C399.506 193.156 399.209 192.438 398.68 191.908C398.151 191.378 397.433 191.081 396.685 191.081H363.125V91.5931C365.833 91.0345 368.319 89.6937 370.274 87.7363C372.229 85.779 373.569 83.2909 374.127 80.5798H413.875V100.961L389.172 136.654C389.093 136.769 389.045 136.899 388.984 137.021C388.949 137.097 388.904 137.163 388.876 137.238C388.754 137.546 388.688 137.869 388.681 138.196C388.681 138.219 388.669 138.238 388.669 138.262C388.669 153.733 401.242 166.319 416.697 166.319C432.152 166.319 444.724 153.733 444.724 138.262C444.724 138.238 444.712 138.219 444.712 138.196ZM303.303 160.67C291.918 160.67 282.511 152.111 281.116 141.086H325.49C324.096 152.111 314.688 160.67 303.303 160.67ZM283.482 135.437L303.303 106.799L323.125 135.437H283.482ZM393.866 210.507H326.741V196.73H393.863L393.866 210.507ZM363.125 85.7063C362.221 86.0412 361.267 86.2171 360.303 86.2265C359.34 86.217 358.385 86.041 357.482 85.7063C356.301 85.285 355.229 84.6063 354.343 83.7193C353.457 82.8322 352.779 81.759 352.358 80.5774C352.043 79.69 351.839 78.7485 351.839 77.7529C351.839 76.7572 352.043 75.8157 352.358 74.9283C353.527 71.6471 356.631 69.2792 360.303 69.2792C363.976 69.2792 367.08 71.6471 368.248 74.9283C368.563 75.8157 368.766 76.7572 368.766 77.7529C368.766 78.7485 368.563 79.69 368.248 80.5774C367.827 81.7593 367.149 82.8326 366.262 83.7197C365.376 84.6068 364.306 85.2853 363.125 85.7063ZM416.697 106.799L436.518 135.437H396.875L416.697 106.799ZM416.697 160.67C405.312 160.67 395.904 152.111 394.51 141.086H438.883C437.489 152.111 428.082 160.67 416.697 160.67Z" fill="url(#paint1_linear_1837_28)"/>
</g>
<defs>
<linearGradient id="paint0_linear_1837_28" x1="30.1701" y1="258.608" x2="668.58" y2="345.105" gradientUnits="userSpaceOnUse">
<stop stop-color="#008DFF"/>
<stop offset="1" stop-color="#00C1FF"/>
</linearGradient>
<linearGradient id="paint1_linear_1837_28" x1="253.495" y1="73.2426" x2="447.935" y2="201.032" gradientUnits="userSpaceOnUse">
<stop stop-color="#FFCF00"/>
<stop offset="1" stop-color="#3CCD00"/>
</linearGradient>
<clipPath id="clip0_1837_28">
<rect width="634" height="274" fill="white" transform="translate(43 63)"/>
</clipPath>
</defs>
</svg>
